<svg width="60" height="61" viewBox="0 0 60 61" fill="none" xmlns="http://www.w3.org/2000/svg">
<circle cx="30" cy="30.9043" r="30" fill="#6B6355"/>
<path d="M35.6922 43.0912C35.1185 43.0912 34.541 43.0136 33.971 42.8574C26.2648 40.7424 20.1635 34.6449 18.0473 26.9437C17.566 25.1924 17.8297 23.3674 18.7922 21.8074C19.7584 20.2399 21.3473 19.1336 23.151 18.7736C24.351 18.5336 25.5373 19.0686 26.146 20.0949L28.0997 23.3949C29.0485 24.9974 28.5771 27.0611 27.0258 28.0936L25.6123 29.0336C26.9335 31.7461 29.1558 33.9749 31.8571 35.2949L32.8098 33.8736C33.8486 32.3249 35.9123 31.8611 37.5135 32.8149L40.8173 34.7849C41.8398 35.3949 42.3685 36.5886 42.136 37.7536C41.776 39.5574 40.6697 41.1461 39.1035 42.1124C38.051 42.7599 36.8797 43.0912 35.6922 43.0912ZM23.7247 20.5886C23.6635 20.5886 23.601 20.5949 23.541 20.6074C22.2235 20.8712 21.0823 21.6649 20.3898 22.7911C19.7035 23.9036 19.5148 25.2024 19.8573 26.4461C21.7985 33.5124 27.3972 39.1086 34.4672 41.0486C35.7122 41.3899 37.0071 41.1999 38.1184 40.5149C39.2434 39.8211 40.0386 38.6786 40.2973 37.3836C40.3748 36.9949 40.1985 36.5961 39.856 36.3924L36.5534 34.4224C35.8097 33.9799 34.8496 34.1961 34.3671 34.9149L32.9734 36.9961C32.7234 37.3686 32.2411 37.5111 31.8336 37.3386C28.1298 35.7899 25.1161 32.7699 23.5661 29.0524C23.3936 28.6374 23.5384 28.1599 23.9121 27.9111L25.9885 26.5299C26.7085 26.0511 26.9272 25.0924 26.486 24.3486L24.5322 21.0499C24.361 20.7599 24.051 20.5886 23.7247 20.5886Z" fill="white"/>
</svg>
