<svg width="60" height="61" viewBox="0 0 60 61" fill="none" xmlns="http://www.w3.org/2000/svg">
<circle cx="30" cy="30.9043" r="30" fill="#6B6355"/>
<path d="M37.9167 41.8418H22.9167C19.8942 41.8418 18.2292 40.1768 18.2292 37.1543V25.9043C18.2292 22.8818 19.8942 21.2168 22.9167 21.2168H37.9167C40.9392 21.2168 42.6042 22.8818 42.6042 25.9043V37.1543C42.6042 40.1768 40.9392 41.8418 37.9167 41.8418ZM22.9167 23.0918C20.9454 23.0918 20.1042 23.933 20.1042 25.9043V37.1543C20.1042 39.1255 20.9454 39.9668 22.9167 39.9668H37.9167C39.8879 39.9668 40.7292 39.1255 40.7292 37.1543V25.9043C40.7292 23.933 39.8879 23.0918 37.9167 23.0918H22.9167ZM31.703 32.378L37.8428 27.913C38.2616 27.6093 38.3541 27.0218 38.0491 26.6031C37.7454 26.1856 37.1605 26.0905 36.7393 26.3968L30.5992 30.8618C30.4892 30.9418 30.3429 30.9418 30.2329 30.8618L24.0928 26.3968C23.6703 26.0905 23.0867 26.1868 22.783 26.6031C22.478 27.0218 22.5705 27.608 22.9893 27.913L29.1291 32.3793C29.5141 32.6593 29.9654 32.798 30.4154 32.798C30.8654 32.798 31.3192 32.658 31.703 32.378Z" fill="white"/>
</svg>
