<svg width="56" height="56" viewBox="0 0 56 56" fill="none" xmlns="http://www.w3.org/2000/svg">
<g clip-path="url(#clip0_1_636)">
<circle cx="28" cy="28" r="19" fill="#6B6355"/>
<path d="M27.9999 0C12.536 0 0 12.536 0 27.9999C0 43.4639 12.536 55.9999 27.9999 55.9999C43.4639 55.9999 55.9999 43.4639 55.9999 27.9999C55.9835 12.5429 43.4571 0.0165234 27.9999 0ZM39.7918 28.8921C39.598 29.2809 39.2829 29.5961 38.8939 29.79V29.7999L22.894 37.8C21.9058 38.2937 20.7047 37.893 20.2108 36.9049C20.0705 36.624 19.9981 36.3139 19.9999 36V20C19.9994 18.8954 20.8944 17.9996 21.999 17.9991C22.3097 17.9989 22.6161 18.0711 22.894 18.21L38.8939 26.21C39.8825 26.7027 40.2846 27.9035 39.7918 28.8921Z" fill="#EFE79C"/>
</g>
<defs>
<clipPath id="clip0_1_636">
<rect width="56" height="56" fill="white"/>
</clipPath>
</defs>
</svg>
