<svg width="61" height="62" viewBox="0 0 61 62" fill="none" xmlns="http://www.w3.org/2000/svg">
<path opacity="0.2" d="M30.145 24.5443C40.1374 39.0639 64.5299 45.5825 50.0102 55.575C35.4906 65.5674 15.6196 61.8974 5.62715 47.3777C-4.36528 32.858 -0.695237 12.9871 13.8244 2.99463C28.3441 -6.9978 20.1525 10.0246 30.145 24.5443Z" fill="#6B6355"/>
<path d="M37 49.5938C25.8712 46.2551 18.25 36.012 18.25 24.3932V12.8438C24.853 12.8438 31.1855 10.2207 35.8546 5.55169L37 4.40625L38.1455 5.55178C42.8145 10.2207 49.147 12.8438 55.75 12.8438V24.3932C55.75 36.012 48.1288 46.2551 37 49.5938Z" stroke="#6B6355" stroke-width="2" stroke-miterlimit="10" stroke-linecap="round" stroke-linejoin="round"/>
<path d="M37 38.3438C43.2132 38.3438 48.25 33.307 48.25 27.0938C48.25 20.8805 43.2132 15.8438 37 15.8438C30.7868 15.8438 25.75 20.8805 25.75 27.0938C25.75 33.307 30.7868 38.3438 37 38.3438Z" stroke="#6B6355" stroke-width="2" stroke-miterlimit="10" stroke-linecap="round" stroke-linejoin="round"/>
<circle cx="34.25" cy="24.25" r="1.25" fill="#6B6355"/>
<circle cx="39.75" cy="29.75" r="1.25" fill="#6B6355"/>
<path d="M33.7188 31.7812L40.2812 22.4062" stroke="#6B6355" stroke-width="2" stroke-miterlimit="10" stroke-linecap="round" stroke-linejoin="round"/>
</svg>
