<svg width="100" height="100" viewBox="0 0 100 100" fill="none" xmlns="http://www.w3.org/2000/svg">
<circle cx="50" cy="50" r="50" fill="#6B6355"/>
<path d="M60.0384 51.96C59.8438 51.7653 59.5877 51.6667 59.3317 51.6667C59.0757 51.6667 58.8197 51.764 58.625 51.96L50.9984 59.5866V38C50.9984 37.448 50.5504 37 49.9984 37C49.4464 37 48.9984 37.448 48.9984 38V59.5853L41.3718 51.9587C40.9811 51.568 40.3477 51.568 39.9571 51.9587C39.5664 52.3493 39.5664 52.9827 39.9571 53.3734L49.2904 62.7067C49.3824 62.7987 49.4929 62.8719 49.6156 62.9225C49.8596 63.0239 50.1356 63.0239 50.3796 62.9225C50.5023 62.8719 50.6131 62.7987 50.7051 62.7067L60.0384 53.3734C60.4291 52.9827 60.4291 52.3506 60.0384 51.96Z" fill="white"/>
</svg>
