<svg width="60" height="61" viewBox="0 0 60 61" fill="none" xmlns="http://www.w3.org/2000/svg">
<circle cx="30" cy="30.9043" r="30" fill="#6B6355"/>
<path d="M30 18.7168C23.9688 18.7168 19.0625 23.623 19.0625 29.6543C19.0625 36.0518 24.9337 39.9292 28.8187 42.4955L29.48 42.9343C29.6375 43.0393 29.8188 43.0918 30 43.0918C30.1812 43.0918 30.3625 43.0393 30.52 42.9343L31.1813 42.4955C35.0663 39.9292 40.9375 36.0518 40.9375 29.6543C40.9375 23.623 36.0312 18.7168 30 18.7168ZM30.1488 40.9305L30 41.0294L29.8512 40.9305C26.0887 38.4455 20.9375 35.043 20.9375 29.6543C20.9375 24.6568 25.0025 20.5918 30 20.5918C34.9975 20.5918 39.0625 24.6568 39.0625 29.6543C39.0625 35.043 33.91 38.4468 30.1488 40.9305ZM30 25.5918C27.76 25.5918 25.9375 27.4143 25.9375 29.6543C25.9375 31.8943 27.76 33.7168 30 33.7168C32.24 33.7168 34.0625 31.8943 34.0625 29.6543C34.0625 27.4143 32.24 25.5918 30 25.5918ZM30 31.8418C28.7937 31.8418 27.8125 30.8605 27.8125 29.6543C27.8125 28.448 28.7937 27.4668 30 27.4668C31.2063 27.4668 32.1875 28.448 32.1875 29.6543C32.1875 30.8605 31.2063 31.8418 30 31.8418Z" fill="white"/>
</svg>
