<svg width="18" height="19" viewBox="0 0 18 19" fill="none" xmlns="http://www.w3.org/2000/svg">
<path d="M2.625 16.6401H15.375C15.6825 16.6401 15.9375 16.8951 15.9375 17.2026C15.9375 17.5101 15.6825 17.7651 15.375 17.7651H2.625C2.3175 17.7651 2.0625 17.5101 2.0625 17.2026C2.0625 16.8951 2.3175 16.6401 2.625 16.6401Z" fill="#282828"/>
<path d="M14.25 11.5917C13.9425 11.5917 13.6875 11.3367 13.6875 11.0292V4.68416L4.1475 14.2242C4.035 14.3367 3.8925 14.3892 3.75 14.3892C3.6075 14.3892 3.465 14.3367 3.3525 14.2242C3.135 14.0067 3.135 13.6467 3.3525 13.4292L12.8925 3.88916H6.5475C6.24 3.88916 5.985 3.63416 5.985 3.32666C5.985 3.01916 6.24 2.76416 6.5475 2.76416H14.25C14.325 2.76416 14.3925 2.77916 14.4675 2.80916C14.6025 2.86166 14.715 2.97416 14.7675 3.10916C14.7975 3.18416 14.8125 3.25166 14.8125 3.32666V11.0292C14.8125 11.3367 14.5575 11.5917 14.25 11.5917Z" fill="#282828"/>
</svg>
